<svg width="400" height="400" viewBox="0 0 400 400" fill="none" xmlns="http://www.w3.org/2000/svg">
<rect width="400" height="400" fill="#F5F5F5"/>
<g clip-path="url(#clip0_0_1)">
<path d="M414.683 -20.3118H-25.941V420.312H414.683V-20.3118Z" fill="#633A1C"/>
<path d="M79.7764 182.324H61.5676V194.436H78.6384V203.54H61.5676V227.439H51V173.219H79.7764V182.324Z" fill="#F5F7DB"/>
<path d="M115.199 214.998V226.697C112.564 227.593 109.707 228.049 106.823 228.049C99.8331 228.049 93.0044 225.367 89.1031 220.245C85.8513 216.099 85.0384 210.897 85.0384 205.775V172.61H95.6057V206.67C95.6057 210.816 96.9881 213.335 98.2071 214.718C99.7513 216.587 102.597 218.457 106.823 218.457C110.839 218.457 113.607 216.77 115.199 214.998Z" fill="#F5F7DB"/>
<path d="M140.802 203.987C143.403 203.5 145.354 202.605 146.736 201.63C150.963 198.785 153.077 194.152 153.077 188.867C153.077 184.803 151.858 180.17 147.711 176.674C145.192 174.56 141.371 172.61 133.892 172.61H131.615V181.226H131.941C133.892 181.226 142.184 181.307 142.184 189.355C142.184 197.322 133.811 197.565 131.779 197.565H131.615V205.775C131.615 206.305 131.606 206.823 131.589 207.329L144.541 226.83H157.71L140.802 203.987Z" fill="#F5F7DB"/>
<path d="M140.802 203.987C143.403 203.5 145.354 202.605 146.736 201.63C150.963 198.785 153.077 194.152 153.077 188.867C153.077 184.803 151.858 180.17 147.711 176.674C145.192 174.56 141.371 172.61 133.892 172.61H131.615V181.226H131.941C133.892 181.226 142.184 181.307 142.184 189.355C142.184 197.322 133.811 197.565 131.779 197.565H131.615V205.775C131.615 206.305 131.606 206.823 131.589 207.329L144.541 226.83H157.71L140.802 203.987Z" fill="#F5F7DB"/>
<path d="M128.609 172.61V205.775C128.609 210.897 127.796 216.099 124.545 220.245C122.888 222.419 120.704 224.154 118.204 225.431V172.61L128.609 172.61Z" fill="#F5F7DB"/>
<path d="M128.771 219.232V226.83H121.764C123.772 225.515 125.519 223.92 126.922 222.083C127.614 221.199 128.232 220.247 128.771 219.232Z" fill="#F5F7DB"/>
<path d="M159.579 227.439V173.219H166.895L199.899 209.393V173.219H210.466V227.439H203.15L170.147 191.184V227.439L159.579 227.439Z" fill="#F5F7DB"/>
<path d="M273.206 200.37C273.206 216.872 261.338 228.659 244.267 228.659C227.196 228.659 215.328 216.872 215.328 200.37C215.328 183.868 227.196 172 244.267 172C261.338 172 273.206 183.868 273.206 200.37ZM262.313 200.37C262.313 189.396 254.835 181.592 244.267 181.592C233.699 181.592 226.221 189.396 226.221 200.37C226.221 211.344 233.699 219.066 244.267 219.066C254.835 219.066 262.313 211.344 262.313 200.37Z" fill="#F5F7DB"/>
<path d="M275.644 215.815C279.221 215.815 281.984 218.579 281.984 222.156C281.984 225.732 279.221 228.496 275.644 228.496C272.067 228.496 269.303 225.732 269.303 222.156C269.303 218.579 272.067 215.815 275.644 215.815Z" fill="#F5F7DB"/>
<path d="M321.182 216.059H299.316L294.52 227.439H283.058L306.388 173.219H314.679L337.359 227.439H325.979L321.182 216.059ZM318.094 207.442L310.371 187.933L302.648 207.442H318.094Z" fill="#F5F7DB"/>
<path d="M349 173.219V227.439H338.432V173.219H349Z" fill="#F5F7DB"/>
</g>
<defs>
<clipPath id="clip0_0_1">
<rect width="400" height="400" fill="white"/>
</clipPath>
</defs>
</svg>
